<svg xmlns="http://www.w3.org/2000/svg" version="1.1" xmlns:xlink="http://www.w3.org/1999/xlink" xmlns:svgjs="http://svgjs.dev/svgjs" width="1000" height="128" viewBox="0 0 1000 128"><g transform="matrix(1,0,0,1,-0.6060606060606233,0.20710958634514043)"><svg viewBox="0 0 396 51" data-background-color="#77d4fc" preserveAspectRatio="xMidYMid meet" height="128" width="1000" xmlns="http://www.w3.org/2000/svg" xmlns:xlink="http://www.w3.org/1999/xlink"><defs></defs><g id="tight-bounds" transform="matrix(1,0,0,1,0.2400000000000091,-0.08252022580938956)"><svg viewBox="0 0 395.52 51.16504045161878" height="51.16504045161878" width="395.52"><g><svg viewBox="0 0 455.6282528761306 58.940731162286646" height="51.16504045161878" width="395.52"><g><rect width="3.846118641859312" height="51.17863776754267" x="46.19376082626263" y="3.881046697371989" fill="#000000" opacity="1" stroke-width="0" stroke="transparent" fill-opacity="1" class="rect-cb-0" data-fill-palette-color="primary" rx="1%" id="cb-0" data-palette-color="#000000"></rect></g><g transform="matrix(1,0,0,1,60.108252876130614,8.145933178000544)"><svg viewBox="0 0 395.52 42.64886480628556" height="42.64886480628556" width="395.52"><g><svg viewBox="0 0 395.52 42.64886480628556" height="42.64886480628556" width="395.52"><g><svg viewBox="0 0 395.52 42.64886480628556" height="42.64886480628556" width="395.52"><g transform="matrix(1,0,0,1,0,0)"><svg width="395.52" viewBox="1.6099999999999999 -38.11 360.43 38.87" height="42.64886480628556" data-palette-color="#000000"><path d="M36.89 0L29.59 0 29.59-6.35Q28.08-3.69 26.64-2.44 25.2-1.2 23.38-0.44 21.56 0.32 18.51 0.29L18.51 0.29Q16.99 0.27 15.48-0.06 13.96-0.39 12.55-0.99 11.13-1.59 9.78-2.43 8.42-3.27 7.32-4.37L7.32-4.37Q4.61-7.1 3.11-10.71 1.61-14.31 1.61-18.55L1.61-18.55Q1.61-21.17 2.25-23.61 2.88-26.05 4.03-28.17 5.18-30.3 6.8-32.04 8.42-33.79 10.41-35.03 12.4-36.28 14.7-36.96 16.99-37.65 19.51-37.65L19.51-37.65Q22.39-37.65 24.51-36.88 26.64-36.11 29.08-34.01L29.08-34.01 34.55-34.01 34.55-25.76 27-25.76Q25.88-27.49 24.89-28.27 23.9-29.05 22.74-29.57 21.58-30.08 19.51-30.08L19.51-30.08Q17.46-30.08 15.7-29.15 13.94-28.22 12.66-26.65 11.38-25.07 10.64-22.94 9.91-20.8 9.91-18.55L9.91-18.55Q9.91-16.33 10.57-14.33 11.23-12.33 12.57-10.73 13.92-9.13 15.7-8.28 17.48-7.42 19.51-7.42L19.51-7.42Q22.09-7.42 24.02-8.94 25.95-10.45 26.81-13.06L26.81-13.06 19.75-13.06 19.75-19.75 36.89-19.75 36.89 0ZM59.45 0.66L59.45 0.66Q56.93 0.66 54.64-0.02 52.34-0.71 50.35-1.95 48.36-3.2 46.74-4.94 45.11-6.69 43.97-8.83 42.82-10.96 42.19-13.4 41.55-15.84 41.55-18.51L41.55-18.51Q41.55-21.17 42.19-23.62 42.82-26.07 43.97-28.21 45.11-30.35 46.74-32.09 48.36-33.84 50.35-35.08 52.34-36.33 54.64-37.01 56.93-37.7 59.45-37.7L59.45-37.7Q61.96-37.7 64.27-37.01 66.57-36.33 68.56-35.08 70.55-33.84 72.18-32.09 73.8-30.35 74.96-28.21 76.12-26.07 76.76-23.62 77.39-21.17 77.39-18.51L77.39-18.51Q77.39-15.87 76.76-13.42 76.12-10.96 74.96-8.83 73.8-6.69 72.18-4.94 70.55-3.2 68.56-1.95 66.57-0.71 64.27-0.02 61.96 0.66 59.45 0.66ZM59.45-7.01L59.45-7.01Q61.57-7.01 63.34-7.92 65.11-8.84 66.38-10.41 67.65-11.99 68.34-14.07 69.04-16.16 69.04-18.51L69.04-18.51Q69.04-20.87 68.33-22.97 67.62-25.07 66.34-26.65 65.06-28.22 63.3-29.14 61.55-30.05 59.45-30.05L59.45-30.05Q57.35-30.05 55.59-29.14 53.83-28.22 52.56-26.65 51.29-25.07 50.57-22.97 49.85-20.87 49.85-18.51L49.85-18.51Q49.85-16.16 50.57-14.07 51.29-11.99 52.56-10.41 53.83-8.84 55.59-7.92 57.35-7.01 59.45-7.01ZM100.04-24.44L100.04-26.59Q99.92-27.44 99.45-28.2 98.97-28.96 98.22-29.5 97.48-30.05 96.54-30.37 95.6-30.69 94.58-30.69L94.58-30.69Q93.65-30.69 92.84-30.49 92.04-30.3 91.44-29.9 90.84-29.49 90.49-28.86 90.13-28.22 90.13-27.34L90.13-27.34Q90.13-26.25 90.61-25.6 91.08-24.95 91.83-24.54 92.57-24.12 93.48-23.88 94.38-23.63 95.23-23.34L95.23-23.34 101.95-21.09Q103.34-20.61 104.56-19.75 105.78-18.9 106.67-17.68 107.56-16.46 108.08-14.87 108.59-13.28 108.59-11.3L108.59-11.3Q108.59-8.62 107.6-6.4 106.61-4.17 104.83-2.59 103.05-1 100.56-0.12 98.07 0.76 95.04 0.76L95.04 0.76Q92.91 0.76 91.02 0.28 89.13-0.2 87.57-1.1 86.01-2 84.83-3.26 83.66-4.52 83-6.1L83-6.1 80.49-6.1 80.49-13.45 89.33-13.45 89.33-11.94Q89.33-10.84 89.68-9.91 90.03-8.98 90.74-8.3 91.45-7.62 92.52-7.24 93.6-6.86 95.04-6.86L95.04-6.86Q97.24-6.86 98.38-7.87 99.53-8.89 99.53-10.69L99.53-10.69Q99.53-11.62 99.13-12.24 98.73-12.87 98.09-13.29 97.46-13.72 96.67-14.01 95.89-14.31 95.14-14.55L95.14-14.55 89.55-16.36Q87.96-16.85 86.48-17.72 85-18.6 83.87-19.92 82.73-21.24 82.06-23.01 81.39-24.78 81.39-27.05L81.39-27.05Q81.39-29.69 82.37-31.75 83.34-33.81 85.1-35.23 86.86-36.65 89.28-37.38 91.69-38.11 94.58-38.11L94.58-38.11Q96.85-38.11 98.77-37.59 100.7-37.06 102.23-36.18 103.75-35.3 104.82-34.17 105.88-33.03 106.44-31.81L106.44-31.81 108.88-31.81 108.88-24.44 100.04-24.44ZM137.42-30.3L137.42-37.01 153.29-37.01 153.29-30.3 149.38-30.3 149.38-6.69 153.29-6.69 153.29 0 137.42 0 137.42-6.69 141.28-6.69 141.28-16.16 124.58-16.16 124.58-6.69 128.48-6.69 128.48 0 112.64 0 112.64-6.69 116.47-6.69 116.47-30.3 112.64-30.3 112.64-37.01 128.48-37.01 128.48-30.3 124.58-30.3 124.58-22.61 141.28-22.61 141.28-30.3 137.42-30.3ZM175.53 0.66L175.53 0.66Q173.01 0.66 170.72-0.02 168.42-0.71 166.43-1.95 164.44-3.2 162.82-4.94 161.2-6.69 160.05-8.83 158.9-10.96 158.27-13.4 157.63-15.84 157.63-18.51L157.63-18.51Q157.63-21.17 158.27-23.62 158.9-26.07 160.05-28.21 161.2-30.35 162.82-32.09 164.44-33.84 166.43-35.08 168.42-36.33 170.72-37.01 173.01-37.7 175.53-37.7L175.53-37.7Q178.04-37.7 180.35-37.01 182.66-36.33 184.65-35.08 186.64-33.84 188.26-32.09 189.88-30.35 191.04-28.21 192.2-26.07 192.84-23.62 193.47-21.17 193.47-18.51L193.47-18.51Q193.47-15.87 192.84-13.42 192.2-10.96 191.04-8.83 189.88-6.69 188.26-4.94 186.64-3.2 184.65-1.95 182.66-0.71 180.35-0.02 178.04 0.66 175.53 0.66ZM175.53-7.01L175.53-7.01Q177.65-7.01 179.42-7.92 181.19-8.84 182.46-10.41 183.73-11.99 184.43-14.07 185.12-16.16 185.12-18.51L185.12-18.51Q185.12-20.87 184.41-22.97 183.71-25.07 182.42-26.65 181.14-28.22 179.38-29.14 177.63-30.05 175.53-30.05L175.53-30.05Q173.43-30.05 171.67-29.14 169.91-28.22 168.64-26.65 167.37-25.07 166.65-22.97 165.93-20.87 165.93-18.51L165.93-18.51Q165.93-16.16 166.65-14.07 167.37-11.99 168.64-10.41 169.91-8.84 171.67-7.92 173.43-7.01 175.53-7.01ZM198.33-30.3L198.33-37.01 215.42-37.01Q218.27-37.01 220.67-36.12 223.06-35.23 224.79-33.72 226.53-32.2 227.5-30.22 228.48-28.25 228.48-26.1L228.48-26.1Q228.48-23.51 227.71-21.25 226.94-18.99 225.33-17.33 223.72-15.67 221.25-14.71 218.79-13.75 215.42-13.75L215.42-13.75 210.27-13.75 210.27-6.69 213.66-6.69 213.66 0 198.33 0 198.33-6.69 202.16-6.69 202.16-30.3 198.33-30.3ZM213.61-30.3L210.27-30.3 210.27-20.36 213.61-20.36Q216.39-20.36 218.03-21.53 219.67-22.71 219.67-25.24L219.67-25.24Q219.67-27.61 218.13-28.96 216.59-30.3 213.61-30.3L213.61-30.3ZM232.5-30.3L232.5-37.01 249.59-37.01Q252.45-37.01 254.84-36.12 257.24-35.23 258.97-33.72 260.7-32.2 261.68-30.22 262.66-28.25 262.66-26.1L262.66-26.1Q262.66-23.51 261.89-21.25 261.12-18.99 259.51-17.33 257.9-15.67 255.43-14.71 252.96-13.75 249.59-13.75L249.59-13.75 244.44-13.75 244.44-6.69 247.84-6.69 247.84 0 232.5 0 232.5-6.69 236.34-6.69 236.34-30.3 232.5-30.3ZM247.79-30.3L244.44-30.3 244.44-20.36 247.79-20.36Q250.57-20.36 252.21-21.53 253.84-22.71 253.84-25.24L253.84-25.24Q253.84-27.61 252.3-28.96 250.77-30.3 247.79-30.3L247.79-30.3ZM266.68-30.32L266.68-37.01 282.53-37.01 282.53-30.32 278.62-30.32 278.62-6.69 282.53-6.69 282.53 0 266.68 0 266.68-6.69 270.51-6.69 270.51-30.32 266.68-30.32ZM309.84-30.3L309.84-37.01 323.91-37.01 323.91-30.3 320.9-30.3 320.9 0 312.8 0 297.39-23.93 297.39-6.69 300.49-6.69 300.49 0 286.45 0 286.45-6.69 289.51-6.69 289.51-30.3 286.5-30.3 286.5-37.01 297.69-37.01 312.99-12.77 312.99-30.3 309.84-30.3ZM362.04 0L354.74 0 354.74-6.35Q353.22-3.69 351.78-2.44 350.34-1.2 348.52-0.44 346.71 0.32 343.65 0.29L343.65 0.29Q342.14 0.27 340.63-0.06 339.11-0.39 337.7-0.99 336.28-1.59 334.93-2.43 333.57-3.27 332.47-4.37L332.47-4.37Q329.76-7.1 328.26-10.71 326.76-14.31 326.76-18.55L326.76-18.55Q326.76-21.17 327.39-23.61 328.03-26.05 329.18-28.17 330.32-30.3 331.95-32.04 333.57-33.79 335.56-35.03 337.55-36.28 339.85-36.96 342.14-37.65 344.66-37.65L344.66-37.65Q347.54-37.65 349.66-36.88 351.78-36.11 354.23-34.01L354.23-34.01 359.69-34.01 359.69-25.76 352.15-25.76Q351.03-27.49 350.04-28.27 349.05-29.05 347.89-29.57 346.73-30.08 344.66-30.08L344.66-30.08Q342.6-30.08 340.85-29.15 339.09-28.22 337.81-26.65 336.53-25.07 335.79-22.94 335.06-20.8 335.06-18.55L335.06-18.55Q335.06-16.33 335.72-14.33 336.38-12.33 337.72-10.73 339.06-9.13 340.85-8.28 342.63-7.42 344.66-7.42L344.66-7.42Q347.24-7.42 349.17-8.94 351.1-10.45 351.96-13.06L351.96-13.06 344.9-13.06 344.9-19.75 362.04-19.75 362.04 0Z" opacity="1" transform="matrix(1,0,0,1,0,0)" fill="#000000" class="undefined-text-0" data-fill-palette-color="primary" id="text-0"></path></svg></g></svg></g></svg></g></svg></g><g><svg viewBox="0 0 36.125387418253965 58.940731162286646" height="58.940731162286646" width="36.125387418253965"><g><svg xmlns="http://www.w3.org/2000/svg" xmlns:xlink="http://www.w3.org/1999/xlink" version="1.1" x="0" y="0" viewBox="70.5 20.37551266220938 159.0039676476932 259.42448733779065" enable-background="new 0 0 300 300" xml:space="preserve" height="58.940731162286646" width="36.125387418253965" class="icon-icon-0" data-fill-palette-color="accent" id="icon-0"><path d="M221.4 105.8c0-0.1 0-0.1 0-0.1 0-0.2-0.1-0.4-0.1-0.6 0-0.1 0-0.2-0.1-0.3-0.1-0.2-0.1-0.4-0.2-0.6 0-0.1-0.1-0.2-0.1-0.3-0.1-0.2-0.2-0.4-0.4-0.6-0.1-0.1-0.1-0.2-0.2-0.3-0.1-0.2-0.3-0.3-0.5-0.5-0.1-0.1-0.1-0.1-0.2-0.2 0 0 0 0 0 0-0.2-0.2-0.4-0.3-0.6-0.4-0.1 0-0.1-0.1-0.2-0.1-0.2-0.1-0.4-0.2-0.6-0.3-0.1 0-0.2-0.1-0.3-0.1 0 0 0 0-0.1 0l-16.9-4.6 6.6-49.6 0.3-2.4-0.2-0.2c0.1-12.1-8.8-22.4-21.2-24-11.9-1.6-22.7 5.5-26.4 16.6h-0.4l-4.2 31.3c-1.7-0.5-3.5-0.8-5.3-0.8-8.9 0-16.5 6.1-18.5 14.2l-0.5 0.1v0.3c-8.5 2.6-15.9 8.3-20.6 16.1-0.1 0.2-0.3 0.4-0.4 0.7L79.5 102c-2.2-0.1-4.2 1.2-5 3.2-0.2 0.5-0.3 1.1-0.3 1.7 0 0 0 0.1 0 0.1l-3.7 156c0 2.1 1.2 4 3.1 4.7l28.6 11.7c0 0 0 0 0.1 0 0.2 0.1 0.4 0.1 0.6 0.2 0.1 0 0.2 0.1 0.3 0.1 0.2 0 0.5 0.1 0.7 0.1 0.1 0 0.1 0 0.2 0 0.1 0 0.2 0 0.3 0 0.1 0 0.3 0 0.4 0l0 0c0 0 0 0 0 0L225.2 263c2.6-0.4 4.4-2.6 4.3-5.2L221.4 105.8zM168.8 43.4l0.1-0.6c1.2-8.2 8.1-13.5 16.2-12.5 7.8 1 13.3 7.8 12.4 15.5l-7.7 58.4-29.5 3.5L168.8 43.4zM150 77.5c1.4 0 2.8 0.3 4 0.9l-0.6 4.3c-3.4-1.2-6.9-1.9-10.5-2C144.5 78.7 147.1 77.5 150 77.5zM136.9 91.1l0.3-0.1c1.7-0.3 2.9-0.3 4.2-0.3 3.7 0 7.3 0.8 10.6 2.3l-2.1 15.9-34.3 4c0 0 0-0.1 0-0.1 0-0.2 0.1-0.3 0.1-0.5 0-0.2 0-0.4 0-0.7 0-0.3 0.1-0.5 0.1-0.8l0.1-0.6v-0.2c0.8-1.2 1-2.4 1.4-3.6 0.3-0.4 0.5-0.9 0.6-1.4 0.3-0.5 0.6-1 1-1.6C122.9 96.9 129.4 92.4 136.9 91.1zM84 112.7l17.1 2.5-0.3 0.2c-0.1 0.1-0.1 0.1-0.2 0.2-0.2 0.1-0.3 0.3-0.4 0.4-0.1 0.1-0.2 0.2-0.2 0.3-0.1 0.1-0.2 0.3-0.3 0.4-0.1 0.1-0.1 0.3-0.2 0.4-0.1 0.2-0.1 0.3-0.2 0.5 0 0.1-0.1 0.3-0.1 0.4 0 0.2-0.1 0.3-0.1 0.5 0 0.2-0.1 0.3-0.1 0.5 0 0.1-0.1 0.2-0.1 0.2v148.2l-18.5-7.6L84 112.7zM109 269.2V123.7l102.7-12.1 7.5 142.1L109 269.2z" fill="#000000" data-fill-palette-color="accent"></path></svg></g></svg></g></svg></g></svg><rect width="395.52" height="51.16504045161878" fill="none" stroke="none" visibility="hidden"></rect></g></svg></g></svg>